# xmcd
#
# Track frame offsets:
#	150
#	16212
#	38223
#	69324
#	96858
#	120110
#	145091
#	169801
#	198741
#	213539
#	228833
#	249679
#	265907
#	290786
#	308724
#	321136
#	339473
#
# Disc length: 4799 seconds
#
# Revision: 0
# Processed by: cddbd v1.5.2PL0 Copyright (c) Steve Scherf et al.
# Submitted via: EasyCDDAExtractor 12.0.7.1
#
DISCID=f612bd11
DTITLE=Сергей Наговицын - Аллея шансона
DYEAR=2011
DGENRE=Chanson
TTITLE0=Дори-дори
TTITLE1=Этап
TTITLE2=Потерянный край
TTITLE3=Разбитая судьба
TTITLE4=До свидания, кореша
TTITLE5=Белый снег
TTITLE6=Любимой посвящается
TTITLE7=На суде
TTITLE8=На привокзальной площади
TTITLE9=Золотистые денечки
TTITLE10=Маячок
TTITLE11=Железнодорожники
TTITLE12=Осень
TTITLE13=Первомай
TTITLE14=Снег растает
TTITLE15=Городские встречи
TTITLE16=Кабакам - кабачный дым
EXTD=
EXTT0=
EXTT1=
EXTT2=
EXTT3=
EXTT4=
EXTT5=
EXTT6=
EXTT7=
EXTT8=
EXTT9=
EXTT10=
EXTT11=
EXTT12=
EXTT13=
EXTT14=
EXTT15=
EXTT16=
PLAYORDER=
